<svg xmlns="http://www.w3.org/2000/svg" xmlns:xlink="http://www.w3.org/1999/xlink" width="500" zoomAndPan="magnify" viewBox="0 0 375 374.999991" height="500" preserveAspectRatio="xMidYMid meet" version="1.0"><defs><g/><clipPath id="1c16ecba25"><path d="M 98 54 L 277 54 L 277 321 L 98 321 Z M 98 54 " clip-rule="nonzero"/></clipPath><clipPath id="d3be4bd081"><path d="M 311.078125 85.554688 L 161.425781 345.5625 L 63.921875 289.445312 L 213.574219 29.4375 Z M 311.078125 85.554688 " clip-rule="nonzero"/></clipPath><clipPath id="d19e1c91ca"><path d="M 311.078125 85.554688 L 161.136719 346.070312 L 63.632812 289.953125 L 213.574219 29.4375 Z M 311.078125 85.554688 " clip-rule="nonzero"/></clipPath><clipPath id="a778b8794c"><path d="M 236.25 215.558594 C 277.578125 143.757812 289.25 72.992188 262.324219 57.496094 C 235.398438 42 180.074219 87.640625 138.75 159.441406 C 97.421875 231.242188 85.75 302.007812 112.675781 317.503906 C 139.601562 333 194.925781 287.359375 236.25 215.558594 Z M 236.25 215.558594 " clip-rule="nonzero"/></clipPath><clipPath id="5a747dc212"><path d="M 102 54 L 281 54 L 281 321 L 102 321 Z M 102 54 " clip-rule="nonzero"/></clipPath><clipPath id="d81cc6bf9d"><path d="M 165.878906 29.386719 L 315.046875 289.675781 L 217.4375 345.613281 L 68.273438 85.324219 Z M 165.878906 29.386719 " clip-rule="nonzero"/></clipPath><clipPath id="432599639d"><path d="M 165.878906 29.386719 L 315.335938 290.183594 L 217.730469 346.121094 L 68.273438 85.324219 Z M 165.878906 29.386719 " clip-rule="nonzero"/></clipPath><clipPath id="088e4e7559"><path d="M 240.464844 159.53125 C 199.273438 87.65625 144.03125 41.910156 117.074219 57.355469 C 90.121094 72.804688 101.664062 143.59375 142.855469 215.46875 C 184.046875 287.34375 239.289062 333.089844 266.242188 317.644531 C 293.195312 302.195312 281.652344 231.40625 240.464844 159.53125 Z M 240.464844 159.53125 " clip-rule="nonzero"/></clipPath><clipPath id="5696df63fd"><path d="M 37.5 131.25 L 337.5 131.25 L 337.5 243.75 L 37.5 243.75 Z M 37.5 131.25 " clip-rule="nonzero"/></clipPath><clipPath id="1a54668043"><path d="M 187.5 131.25 C 104.65625 131.25 37.5 156.433594 37.5 187.5 C 37.5 218.566406 104.65625 243.75 187.5 243.75 C 270.34375 243.75 337.5 218.566406 337.5 187.5 C 337.5 156.433594 270.34375 131.25 187.5 131.25 Z M 187.5 131.25 " clip-rule="nonzero"/></clipPath><clipPath id="fc31eeca7f"><path d="M 142.5625 140.625 L 236.3125 140.625 L 236.3125 234.375 L 142.5625 234.375 Z M 142.5625 140.625 " clip-rule="nonzero"/></clipPath><clipPath id="29b0d9065b"><path d="M 189.4375 234.375 L 142.5625 187.5 L 166 187.5 L 166 140.625 L 212.875 140.625 L 212.875 187.5 L 236.3125 187.5 Z M 189.4375 234.375 " clip-rule="nonzero"/></clipPath></defs><g clip-path="url(#1c16ecba25)"><g clip-path="url(#d3be4bd081)"><g clip-path="url(#d19e1c91ca)"><g clip-path="url(#a778b8794c)"><path stroke-linecap="butt" transform="matrix(-0.116913, 0.203133, -0.203133, -0.116913, 311.076313, 85.554165)" fill="none" stroke-linejoin="miter" d="M 640.001889 0.0080293 C 286.528 -0.003561 0.000638328 107.44813 0.00455369 239.998487 C 0.00846906 372.548844 286.532642 479.994596 639.998216 479.991741 C 993.472105 480.003332 1279.999467 372.55164 1279.995552 240.001283 C 1279.991636 107.450926 993.467464 0.0051746 640.001889 0.0080293 Z M 640.001889 0.0080293 " stroke="#38b6ff" stroke-width="25.6" stroke-opacity="1" stroke-miterlimit="4"/></g></g></g></g><g clip-path="url(#5a747dc212)"><g clip-path="url(#d81cc6bf9d)"><g clip-path="url(#432599639d)"><g clip-path="url(#088e4e7559)"><path stroke-linecap="butt" transform="matrix(0.116536, 0.203349, -0.203349, 0.116536, 165.879807, 29.387745)" fill="none" stroke-linejoin="miter" d="M 640.003729 -0.00672838 C 286.545781 -0.00316894 0.00497259 107.446351 -0.0074023 240.004434 C 0.00297024 372.556344 286.542395 480.003381 640.000343 479.999822 C 993.458291 479.996262 1279.999099 372.546743 1280.003187 240.00312 C 1279.992814 107.45121 993.45339 0.00417257 640.003729 -0.00672838 Z M 640.003729 -0.00672838 " stroke="#38b6ff" stroke-width="25.6" stroke-opacity="1" stroke-miterlimit="4"/></g></g></g></g><g clip-path="url(#5696df63fd)"><g clip-path="url(#1a54668043)"><path stroke-linecap="butt" transform="matrix(0.234375, 0, 0, 0.234375, 37.500002, 131.249991)" fill="none" stroke-linejoin="miter" d="M 639.999994 0.0000367733 C 286.533326 0.0000367733 -0.00000869333 107.450037 -0.00000869333 240.000038 C -0.00000869333 372.550038 286.533326 480.000039 639.999994 480.000039 C 993.466662 480.000039 1279.999997 372.550038 1279.999997 240.000038 C 1279.999997 107.450037 993.466662 0.0000367733 639.999994 0.0000367733 Z M 639.999994 0.0000367733 " stroke="#38b6ff" stroke-width="25.6" stroke-opacity="1" stroke-miterlimit="4"/></g></g><g clip-path="url(#fc31eeca7f)"><g clip-path="url(#29b0d9065b)"><path fill="#38b6ff" d="M 142.5625 140.625 L 236.3125 140.625 L 236.3125 234.375 L 142.5625 234.375 Z M 142.5625 140.625 " fill-opacity="1" fill-rule="nonzero"/></g></g><g fill="#ffffff" fill-opacity="1"><g transform="translate(171.139006, 202.397037)"><g><path d="M 8.828125 0 L 3.6875 0 L 3.6875 -28.359375 L 11.015625 -28.359375 L 18.1875 -7.5 L 18.59375 -7.5 L 25.734375 -28.359375 L 32.890625 -28.359375 L 32.890625 0 L 27.578125 0 L 27.578125 -18.734375 L 27.09375 -18.8125 L 20.53125 0 L 15.859375 0 L 9.3125 -18.8125 L 8.828125 -18.734375 Z M 8.828125 0 "/></g></g></g></svg>