<svg xmlns="http://www.w3.org/2000/svg" xmlns:xlink="http://www.w3.org/1999/xlink" width="500" zoomAndPan="magnify" viewBox="0 0 375 374.999991" height="500" preserveAspectRatio="xMidYMid meet" version="1.0"><defs><g/><clipPath id="dcc0b1bcf1"><path d="M 98 54 L 277 54 L 277 321 L 98 321 Z M 98 54 " clip-rule="nonzero"/></clipPath><clipPath id="5f4aa49753"><path d="M 311.078125 85.554688 L 161.425781 345.5625 L 63.921875 289.445312 L 213.574219 29.4375 Z M 311.078125 85.554688 " clip-rule="nonzero"/></clipPath><clipPath id="0d76f643d6"><path d="M 311.078125 85.554688 L 161.136719 346.070312 L 63.632812 289.953125 L 213.574219 29.4375 Z M 311.078125 85.554688 " clip-rule="nonzero"/></clipPath><clipPath id="b125debe9f"><path d="M 236.25 215.558594 C 277.578125 143.757812 289.25 72.992188 262.324219 57.496094 C 235.398438 42 180.074219 87.640625 138.75 159.441406 C 97.421875 231.242188 85.75 302.007812 112.675781 317.503906 C 139.601562 333 194.925781 287.359375 236.25 215.558594 Z M 236.25 215.558594 " clip-rule="nonzero"/></clipPath><clipPath id="326456664d"><path d="M 102 54 L 281 54 L 281 321 L 102 321 Z M 102 54 " clip-rule="nonzero"/></clipPath><clipPath id="148ae2607f"><path d="M 165.878906 29.386719 L 315.046875 289.675781 L 217.4375 345.613281 L 68.273438 85.324219 Z M 165.878906 29.386719 " clip-rule="nonzero"/></clipPath><clipPath id="653288a97a"><path d="M 165.878906 29.386719 L 315.335938 290.183594 L 217.730469 346.121094 L 68.273438 85.324219 Z M 165.878906 29.386719 " clip-rule="nonzero"/></clipPath><clipPath id="8b70031699"><path d="M 240.464844 159.53125 C 199.273438 87.65625 144.03125 41.910156 117.074219 57.355469 C 90.121094 72.804688 101.664062 143.59375 142.855469 215.46875 C 184.046875 287.34375 239.289062 333.089844 266.242188 317.644531 C 293.195312 302.195312 281.652344 231.40625 240.464844 159.53125 Z M 240.464844 159.53125 " clip-rule="nonzero"/></clipPath><clipPath id="826433b12b"><path d="M 37.5 131.25 L 337.5 131.25 L 337.5 243.75 L 37.5 243.75 Z M 37.5 131.25 " clip-rule="nonzero"/></clipPath><clipPath id="c35728e6e8"><path d="M 187.5 131.25 C 104.65625 131.25 37.5 156.433594 37.5 187.5 C 37.5 218.566406 104.65625 243.75 187.5 243.75 C 270.34375 243.75 337.5 218.566406 337.5 187.5 C 337.5 156.433594 270.34375 131.25 187.5 131.25 Z M 187.5 131.25 " clip-rule="nonzero"/></clipPath><clipPath id="f3686f1b8a"><path d="M 142.5625 140.625 L 236.3125 140.625 L 236.3125 234.375 L 142.5625 234.375 Z M 142.5625 140.625 " clip-rule="nonzero"/></clipPath><clipPath id="60da6d56de"><path d="M 189.4375 234.375 L 142.5625 187.5 L 166 187.5 L 166 140.625 L 212.875 140.625 L 212.875 187.5 L 236.3125 187.5 Z M 189.4375 234.375 " clip-rule="nonzero"/></clipPath></defs><rect x="-37.5" width="450" fill="#ffffff" y="-37.499999" height="449.999989" fill-opacity="1"/><rect x="-37.5" width="450" fill="#ffffff" y="-37.499999" height="449.999989" fill-opacity="1"/><g clip-path="url(#dcc0b1bcf1)"><g clip-path="url(#5f4aa49753)"><g clip-path="url(#0d76f643d6)"><g clip-path="url(#b125debe9f)"><path stroke-linecap="butt" transform="matrix(-0.374122, 0.650025, -0.650025, -0.374122, 311.076313, 85.554165)" fill="none" stroke-linejoin="miter" d="M 200.000575 0.00252829 C 89.539993 -0.00110425 0.000196266 33.577538 0.00141586 74.999522 C 0.00263544 116.421505 89.541429 149.998308 199.999413 149.997427 C 310.459995 150.001059 399.999792 116.422417 399.998572 75.000434 C 399.997353 33.57845 310.458559 0.00164676 200.000575 0.00252829 Z M 200.000575 0.00252829 " stroke="#38b6ff" stroke-width="8" stroke-opacity="1" stroke-miterlimit="4"/></g></g></g></g><g clip-path="url(#326456664d)"><g clip-path="url(#148ae2607f)"><g clip-path="url(#653288a97a)"><g clip-path="url(#8b70031699)"><path stroke-linecap="butt" transform="matrix(0.372916, 0.650718, -0.650718, 0.372916, 165.879807, 29.387745)" fill="none" stroke-linejoin="miter" d="M 200.00117 -0.00210577 C 89.545559 -0.000991705 0.00155446 33.576985 -0.00231204 75.001387 C 0.000930036 116.42386 89.544503 150.001059 200.000114 149.999945 C 310.455726 149.998831 399.99973 116.420854 400.001007 75.000971 C 399.997765 33.578498 310.454192 0.00129903 200.00117 -0.00210577 Z M 200.00117 -0.00210577 " stroke="#38b6ff" stroke-width="8" stroke-opacity="1" stroke-miterlimit="4"/></g></g></g></g><g clip-path="url(#826433b12b)"><g clip-path="url(#c35728e6e8)"><path stroke-linecap="butt" transform="matrix(0.75, 0, 0, 0.75, 37.500002, 131.249991)" fill="none" stroke-linejoin="miter" d="M 200.00001 0.0000114917 C 89.54167 0.0000114917 -0.00000271667 33.578139 -0.00000271667 75.000016 C -0.00000271667 116.421894 89.54167 150.000021 200.00001 150.000021 C 310.458351 150.000021 400.000024 116.421894 400.000024 75.000016 C 400.000024 33.578139 310.458351 0.0000114917 200.00001 0.0000114917 Z M 200.00001 0.0000114917 " stroke="#38b6ff" stroke-width="8" stroke-opacity="1" stroke-miterlimit="4"/></g></g><g clip-path="url(#f3686f1b8a)"><g clip-path="url(#60da6d56de)"><path fill="#38b6ff" d="M 142.5625 140.625 L 236.3125 140.625 L 236.3125 234.375 L 142.5625 234.375 Z M 142.5625 140.625 " fill-opacity="1" fill-rule="nonzero"/></g></g><g fill="#ffffff" fill-opacity="1"><g transform="translate(171.139006, 202.397022)"><g><path d="M 8.828125 0 L 3.6875 0 L 3.6875 -28.359375 L 11.015625 -28.359375 L 18.1875 -7.5 L 18.59375 -7.5 L 25.734375 -28.359375 L 32.890625 -28.359375 L 32.890625 0 L 27.578125 0 L 27.578125 -18.734375 L 27.09375 -18.8125 L 20.53125 0 L 15.859375 0 L 9.3125 -18.8125 L 8.828125 -18.734375 Z M 8.828125 0 "/></g></g></g></svg>